<mxfile host="app.diagrams.net" modified="2023-09-12T11:52:17.992Z" agent="Mozilla/5.0 (Windows NT 10.0; Win64; x64) AppleWebKit/537.36 (KHTML, like Gecko) Chrome/116.0.0.0 Safari/537.36" etag="bVU3GaPzvjUiZl0OQrgy" version="21.7.4" type="onedrive">
  <diagram name="Сторінка-1" id="SLLkSyE9lgRa4L8z2NkR">
    <mxGraphModel grid="1" page="1" gridSize="10" guides="1" tooltips="1" connect="1" arrows="1" fold="1" pageScale="1" pageWidth="827" pageHeight="1169" math="0" shadow="0">
      <root>
        <mxCell id="0" />
        <mxCell id="1" parent="0" />
        <mxCell id="0gB49jp2bvKmTQ91O_Oq-19" style="edgeStyle=orthogonalEdgeStyle;rounded=0;orthogonalLoop=1;jettySize=auto;html=1;" edge="1" parent="1" source="0gB49jp2bvKmTQ91O_Oq-1" target="0gB49jp2bvKmTQ91O_Oq-18">
          <mxGeometry relative="1" as="geometry" />
        </mxCell>
        <mxCell id="0gB49jp2bvKmTQ91O_Oq-1" value="Початок&lt;br&gt;" style="rounded=1;whiteSpace=wrap;html=1;" vertex="1" parent="1">
          <mxGeometry x="250" y="-30" width="120" height="40" as="geometry" />
        </mxCell>
        <mxCell id="0gB49jp2bvKmTQ91O_Oq-4" style="edgeStyle=orthogonalEdgeStyle;rounded=0;orthogonalLoop=1;jettySize=auto;html=1;entryX=0.5;entryY=0;entryDx=0;entryDy=0;" edge="1" parent="1" source="0gB49jp2bvKmTQ91O_Oq-2" target="0gB49jp2bvKmTQ91O_Oq-3">
          <mxGeometry relative="1" as="geometry" />
        </mxCell>
        <mxCell id="0gB49jp2bvKmTQ91O_Oq-2" value="Вивести повідомлення в консоль з проханням ввести&lt;br&gt;&amp;nbsp;число&amp;nbsp;" style="shape=parallelogram;perimeter=parallelogramPerimeter;whiteSpace=wrap;html=1;fixedSize=1;" vertex="1" parent="1">
          <mxGeometry x="240" y="190" width="140" height="70" as="geometry" />
        </mxCell>
        <mxCell id="0gB49jp2bvKmTQ91O_Oq-9" style="edgeStyle=orthogonalEdgeStyle;rounded=0;orthogonalLoop=1;jettySize=auto;html=1;" edge="1" parent="1" source="0gB49jp2bvKmTQ91O_Oq-3" target="0gB49jp2bvKmTQ91O_Oq-8">
          <mxGeometry relative="1" as="geometry" />
        </mxCell>
        <mxCell id="0gB49jp2bvKmTQ91O_Oq-3" value="присвоєння наступній змінній отриманих даних з консолі" style="shape=parallelogram;perimeter=parallelogramPerimeter;whiteSpace=wrap;html=1;fixedSize=1;" vertex="1" parent="1">
          <mxGeometry x="225" y="310" width="170" height="60" as="geometry" />
        </mxCell>
        <mxCell id="0gB49jp2bvKmTQ91O_Oq-11" style="edgeStyle=orthogonalEdgeStyle;rounded=0;orthogonalLoop=1;jettySize=auto;html=1;entryX=0.5;entryY=1;entryDx=0;entryDy=0;" edge="1" parent="1" source="0gB49jp2bvKmTQ91O_Oq-8" target="0gB49jp2bvKmTQ91O_Oq-10">
          <mxGeometry relative="1" as="geometry" />
        </mxCell>
        <mxCell id="0gB49jp2bvKmTQ91O_Oq-15" style="edgeStyle=orthogonalEdgeStyle;rounded=0;orthogonalLoop=1;jettySize=auto;html=1;entryX=0.5;entryY=0;entryDx=0;entryDy=0;" edge="1" parent="1" source="0gB49jp2bvKmTQ91O_Oq-8" target="0gB49jp2bvKmTQ91O_Oq-14">
          <mxGeometry relative="1" as="geometry" />
        </mxCell>
        <mxCell id="0gB49jp2bvKmTQ91O_Oq-8" value="Введені дані є вірними? (Є числом?)" style="rhombus;whiteSpace=wrap;html=1;" vertex="1" parent="1">
          <mxGeometry x="215" y="440" width="190" height="110" as="geometry" />
        </mxCell>
        <mxCell id="0gB49jp2bvKmTQ91O_Oq-12" style="edgeStyle=orthogonalEdgeStyle;rounded=0;orthogonalLoop=1;jettySize=auto;html=1;entryX=1;entryY=0.5;entryDx=0;entryDy=0;" edge="1" parent="1" source="0gB49jp2bvKmTQ91O_Oq-10" target="0gB49jp2bvKmTQ91O_Oq-2">
          <mxGeometry relative="1" as="geometry">
            <Array as="points">
              <mxPoint x="625" y="220" />
              <mxPoint x="370" y="220" />
            </Array>
          </mxGeometry>
        </mxCell>
        <mxCell id="0gB49jp2bvKmTQ91O_Oq-10" value="Вивести повідомлення про некоректність даних" style="shape=parallelogram;perimeter=parallelogramPerimeter;whiteSpace=wrap;html=1;fixedSize=1;" vertex="1" parent="1">
          <mxGeometry x="530" y="300" width="190" height="70" as="geometry" />
        </mxCell>
        <mxCell id="0gB49jp2bvKmTQ91O_Oq-13" value="НІ" style="text;html=1;strokeColor=none;fillColor=none;align=center;verticalAlign=middle;whiteSpace=wrap;rounded=0;" vertex="1" parent="1">
          <mxGeometry x="460" y="470" width="60" height="30" as="geometry" />
        </mxCell>
        <mxCell id="0gB49jp2bvKmTQ91O_Oq-17" value="" style="edgeStyle=orthogonalEdgeStyle;rounded=0;orthogonalLoop=1;jettySize=auto;html=1;" edge="1" parent="1" source="0gB49jp2bvKmTQ91O_Oq-14" target="0gB49jp2bvKmTQ91O_Oq-16">
          <mxGeometry relative="1" as="geometry" />
        </mxCell>
        <mxCell id="0gB49jp2bvKmTQ91O_Oq-14" value="Вивести в термінал число&amp;nbsp;" style="shape=parallelogram;perimeter=parallelogramPerimeter;whiteSpace=wrap;html=1;fixedSize=1;" vertex="1" parent="1">
          <mxGeometry x="250" y="590" width="120" height="60" as="geometry" />
        </mxCell>
        <mxCell id="0gB49jp2bvKmTQ91O_Oq-22" style="edgeStyle=orthogonalEdgeStyle;rounded=0;orthogonalLoop=1;jettySize=auto;html=1;entryX=0;entryY=0.5;entryDx=0;entryDy=0;" edge="1" parent="1" source="0gB49jp2bvKmTQ91O_Oq-16" target="0gB49jp2bvKmTQ91O_Oq-2">
          <mxGeometry relative="1" as="geometry">
            <Array as="points">
              <mxPoint x="130" y="760" />
              <mxPoint x="130" y="225" />
            </Array>
          </mxGeometry>
        </mxCell>
        <mxCell id="0gB49jp2bvKmTQ91O_Oq-25" value="" style="edgeStyle=orthogonalEdgeStyle;rounded=0;orthogonalLoop=1;jettySize=auto;html=1;" edge="1" parent="1" source="0gB49jp2bvKmTQ91O_Oq-16" target="0gB49jp2bvKmTQ91O_Oq-24">
          <mxGeometry relative="1" as="geometry" />
        </mxCell>
        <mxCell id="0gB49jp2bvKmTQ91O_Oq-16" value="Чи до всіх чисел коректно присвоєно&amp;nbsp;&lt;br&gt;Значення&lt;br&gt;" style="rhombus;whiteSpace=wrap;html=1;" vertex="1" parent="1">
          <mxGeometry x="240" y="720" width="140" height="80" as="geometry" />
        </mxCell>
        <mxCell id="0gB49jp2bvKmTQ91O_Oq-20" style="edgeStyle=orthogonalEdgeStyle;rounded=0;orthogonalLoop=1;jettySize=auto;html=1;" edge="1" parent="1" source="0gB49jp2bvKmTQ91O_Oq-18" target="0gB49jp2bvKmTQ91O_Oq-2">
          <mxGeometry relative="1" as="geometry" />
        </mxCell>
        <mxCell id="0gB49jp2bvKmTQ91O_Oq-18" value="Ініціалізуємо змінні x, y" style="shape=parallelogram;perimeter=parallelogramPerimeter;whiteSpace=wrap;html=1;fixedSize=1;" vertex="1" parent="1">
          <mxGeometry x="250" y="40" width="120" height="60" as="geometry" />
        </mxCell>
        <mxCell id="0gB49jp2bvKmTQ91O_Oq-23" value="Ні" style="text;html=1;strokeColor=none;fillColor=none;align=center;verticalAlign=middle;whiteSpace=wrap;rounded=0;" vertex="1" parent="1">
          <mxGeometry x="155" y="720" width="60" height="40" as="geometry" />
        </mxCell>
        <mxCell id="0gB49jp2bvKmTQ91O_Oq-27" style="edgeStyle=orthogonalEdgeStyle;rounded=0;orthogonalLoop=1;jettySize=auto;html=1;entryX=0.5;entryY=0;entryDx=0;entryDy=0;" edge="1" parent="1" source="0gB49jp2bvKmTQ91O_Oq-24" target="0gB49jp2bvKmTQ91O_Oq-26">
          <mxGeometry relative="1" as="geometry" />
        </mxCell>
        <mxCell id="0gB49jp2bvKmTQ91O_Oq-24" value="Зробити математичні обчислення по формулі:&lt;br&gt;&lt;div style=&quot;color: rgb(204, 204, 204); background-color: rgb(31, 31, 31); font-family: Consolas, &amp;quot;Courier New&amp;quot;, monospace; font-size: 14px; line-height: 19px;&quot;&gt;x^3 + 3(x^2)y + y^3&lt;/div&gt;" style="shape=parallelogram;perimeter=parallelogramPerimeter;whiteSpace=wrap;html=1;fixedSize=1;" vertex="1" parent="1">
          <mxGeometry x="220" y="890" width="180" height="60" as="geometry" />
        </mxCell>
        <mxCell id="0gB49jp2bvKmTQ91O_Oq-29" style="edgeStyle=orthogonalEdgeStyle;rounded=0;orthogonalLoop=1;jettySize=auto;html=1;" edge="1" parent="1" source="0gB49jp2bvKmTQ91O_Oq-26" target="0gB49jp2bvKmTQ91O_Oq-28">
          <mxGeometry relative="1" as="geometry" />
        </mxCell>
        <mxCell id="0gB49jp2bvKmTQ91O_Oq-26" value="Вивести отримане число&lt;br&gt;" style="shape=parallelogram;perimeter=parallelogramPerimeter;whiteSpace=wrap;html=1;fixedSize=1;" vertex="1" parent="1">
          <mxGeometry x="250" y="1010" width="120" height="60" as="geometry" />
        </mxCell>
        <mxCell id="0gB49jp2bvKmTQ91O_Oq-28" value="Кінець&lt;br&gt;" style="rounded=1;whiteSpace=wrap;html=1;" vertex="1" parent="1">
          <mxGeometry x="240" y="1110" width="120" height="60" as="geometry" />
        </mxCell>
      </root>
    </mxGraphModel>
  </diagram>
</mxfile>
